<svg viewBox="0 0 24 24"><path d="M 10.5 0 C 7.4744232 0 5 2.4744232 5 5.5 C 5 6.1138095 5.114451 6.6900733 5.2929688 7.2148438 A 1.0005835 1.0005835 0 1 0 7.1875 6.5703125 C 7.0680178 6.2190828 7 5.8661905 7 5.5 C 7 3.5555768 8.5555768 2 10.5 2 C 12.444423 2 14 3.5555768 14 5.5 C 14 5.8661905 13.93198 6.2190828 13.8125 6.5703125 A 1.0005834 1.0005834 0 1 0 15.707031 7.2148438 C 15.885549 6.6900734 16 6.1138095 16 5.5 C 16 2.4744232 13.525577 0 10.5 0 z M 10.5 4 C 9.672 4 9 4.672 9 5.5 L 9 14 L 9 15.15625 L 6.15625 13.714844 C 5.59425 13.429844 4.917875 13.495766 4.421875 13.884766 C 3.665875 14.477766 3.5973437 15.597344 4.2773438 16.277344 L 9.1210938 21.121094 C 9.6840938 21.684094 10.446188 22 11.242188 22 L 17 22 C 18.657 22 20 20.657 20 19 L 20 14.160156 C 20 13.198156 19.315141 12.371359 18.369141 12.193359 L 12 11 L 12 5.5 C 12 4.672 11.328 4 10.5 4 z"/></svg>