<svg viewBox="0 0 512 512"><path d="M 256 0 A 256 256 0 0 0 0 256 A 256 256 0 0 0 256 512 A 256 256 0 0 0 512 256 A 256 256 0 0 0 256 0 z M 256 46.833984 A 209.16646 209.16646 0 0 1 465.16602 256 A 209.16646 209.16646 0 0 1 256 465.16602 A 209.16646 209.16646 0 0 1 46.833984 256 A 209.16646 209.16646 0 0 1 256 46.833984 z"/><path d="m 183.90715,341.39323 h 143.89283 c 17.30088,0 17.09619,29.421 0,29.421 0.40705,0 -144.5034,0.78808 -144.5034,0.52539 -16.28898,0 -15.89507,-29.94639 0.61057,-29.94639 z"/></svg>